<?xml version="1.0" encoding="UTF-8"?><svg id="Calque_1" xmlns="http://www.w3.org/2000/svg" viewBox="0 0 377.49 88.15"><defs><style>.cls-1{fill:#fff;stroke-width:0px;}</style></defs><path class="cls-1" d="M305.83,46.51c-3.18,0-5.77-2.59-5.77-5.77v-8.14c0-.39-.16-.77-.44-1.04-.28-.27-.64-.42-1.03-.42h-.97c-5.6,0-8.27-3.09-9.52-5.68-1.29-2.67-1.3-5.32-1.3-5.44v-6.25c0-2.97,2.42-5.39,5.39-5.39s5.39,2.42,5.39,5.39v1.07c0,1.05-.85,1.9-1.9,1.9s-1.9-.85-1.9-1.9v-1.07c0-.87-.71-1.59-1.59-1.59s-1.59.71-1.59,1.59v6.25c0,.74.26,7.31,7.03,7.31h.97c1.39,0,2.7.54,3.69,1.51,1,.98,1.57,2.35,1.57,3.75v8.14c0,1.08.88,1.96,1.96,1.96s1.96-.88,1.96-1.96V5.77c0-1.08-.88-1.96-1.96-1.96s-1.96.88-1.96,1.96v11.31c0,1.05-.85,1.9-1.9,1.9s-1.9-.85-1.9-1.9V5.77c0-3.18,2.59-5.77,5.77-5.77s5.76,2.59,5.76,5.77v34.98c0,3.18-2.59,5.77-5.76,5.77Z"/><path class="cls-1" d="M128.02,43.14c.36.36.54.78.54,1.24,0,.55-.18,1-.54,1.34-.36.34-.82.51-1.37.51h-30.56c-.6,0-1.07-.2-1.44-.61-.36-.4-.54-.86-.54-1.37,0-.38.13-.77.38-1.15L123.2,5.21h-25.52c-.55,0-1.01-.17-1.37-.51-.36-.34-.54-.79-.54-1.34,0-.51.18-.93.54-1.28.36-.34.82-.51,1.37-.51h29.03c.64,0,1.15.19,1.53.57.38.38.57.83.57,1.34,0,.38-.13.77-.38,1.15l-28.65,37.96h26.86c.55,0,1.01.18,1.37.54Z"/><path class="cls-1" d="M174.82,6.49c0,.38-.15.81-.45,1.28-.38.47-.87.7-1.47.7-.34,0-.68-.11-1.02-.32-3.4-2.25-7.12-3.38-11.17-3.38-3.45,0-6.56.81-9.35,2.43-2.79,1.62-4.98,3.88-6.57,6.79-1.59,2.91-2.39,6.22-2.39,9.92s.81,7.14,2.42,10.05c1.62,2.91,3.82,5.17,6.6,6.76,2.79,1.6,5.88,2.39,9.28,2.39,4.04,0,7.74-1.11,11.1-3.32.34-.21.7-.32,1.08-.32.6,0,1.08.25,1.47.77.3.34.45.74.45,1.21,0,.68-.3,1.19-.89,1.53-1.66,1.11-3.7,2.03-6.13,2.78-2.42.74-4.78,1.12-7.08,1.12-4.04,0-7.77-.97-11.2-2.9-3.42-1.94-6.15-4.65-8.17-8.13-2.02-3.49-3.03-7.47-3.03-11.93s1-8.2,3-11.71c2-3.51,4.7-6.25,8.1-8.23,3.4-1.98,7.17-2.97,11.29-2.97,2.38,0,4.71.34,6.99,1.02,2.28.68,4.33,1.64,6.16,2.87.64.38.96.92.96,1.6Z"/><path class="cls-1" d="M257.92,42.98c.36.34.54.79.54,1.34s-.18,1.01-.54,1.37c-.36.36-.82.54-1.37.54h-22.78c-.55,0-1.01-.18-1.37-.54-.36-.36-.54-.82-.54-1.37V3.49c0-.55.19-1.01.57-1.37.38-.36.87-.54,1.47-.54.55,0,1.02.18,1.4.54.38.36.57.82.57,1.37v38.98h20.67c.55,0,1.01.17,1.37.51Z"/><path class="cls-1" d="M273.01,45.66c-.38.38-.85.57-1.4.57-.6,0-1.07-.18-1.44-.54-.36-.36-.54-.84-.54-1.44V3.55c0-.59.19-1.07.57-1.44.38-.36.87-.54,1.47-.54.55,0,1.02.19,1.4.57.38.38.57.85.57,1.4v40.71c-.04.55-.25,1.02-.64,1.4Z"/><path class="cls-1" d="M374.75,35.71c-1.83,3.49-4.36,6.22-7.59,8.2-3.23,1.98-6.91,2.97-11.04,2.97s-7.81-.99-11.04-2.97c-3.23-1.98-5.76-4.71-7.59-8.2-1.83-3.49-2.74-7.42-2.74-11.8s.91-8.38,2.74-11.87c1.83-3.49,4.36-6.21,7.59-8.17,3.23-1.96,6.91-2.93,11.04-2.93s7.81.98,11.04,2.93c3.23,1.96,5.76,4.68,7.59,8.17,1.83,3.49,2.74,7.44,2.74,11.87s-.92,8.32-2.74,11.8ZM371.21,13.98c-1.47-2.91-3.51-5.18-6.12-6.79-2.62-1.62-5.61-2.43-8.97-2.43s-6.35.81-8.96,2.43-4.66,3.88-6.12,6.79c-1.47,2.91-2.2,6.22-2.2,9.92s.73,7.01,2.2,9.92c1.47,2.91,3.51,5.18,6.12,6.79,2.62,1.62,5.6,2.43,8.96,2.43s6.35-.81,8.97-2.43c2.62-1.62,4.66-3.88,6.12-6.79,1.47-2.91,2.2-6.22,2.2-9.92s-.73-7.01-2.2-9.92Z"/><path class="cls-1" d="M81.91,5.27h-23.51c-1.02,0-1.84-.82-1.84-1.84s.82-1.84,1.84-1.84h23.51c1.02,0,1.84.82,1.84,1.84s-.82,1.84-1.84,1.84Z"/><path class="cls-1" d="M40.23,2.12c.36.36.54.82.54,1.37v40.83c0,.55-.19,1.01-.57,1.37-.38.36-.85.54-1.4.54-.6,0-1.08-.18-1.47-.54-.38-.36-.57-.82-.57-1.37V9.23l-14.99,22.71c-.43.55-.92.81-1.47.77h-.13c-.51,0-.98-.26-1.4-.77L3.76,9.1v35.22c0,.55-.18,1.01-.54,1.37-.36.36-.82.54-1.37.54s-1-.18-1.34-.54c-.34-.36-.51-.82-.51-1.37V3.49c0-.51.18-.96.54-1.34.36-.38.82-.57,1.37-.57.3,0,.62.08.96.22.34.15.6.35.77.61l16.72,25.07L37.2,2.4c.47-.64,1.04-.91,1.72-.83.51,0,.95.18,1.31.54Z"/><path class="cls-1" d="M81.91,46.21h-23.51c-1.02,0-1.84-.82-1.84-1.84v-13.2c0-1.02.82-1.84,1.84-1.84h20.67c1.02,0,1.84.82,1.84,1.84s-.82,1.84-1.84,1.84h-18.83v9.52h21.67c1.02,0,1.84.82,1.84,1.84s-.82,1.84-1.84,1.84Z"/><path class="cls-1" d="M218.29,47.09c-.73,0-1.41-.43-1.7-1.14l-15.21-37.2-12.73,30.91,11.1-8.47c.81-.62,1.96-.46,2.58.35.62.81.46,1.96-.35,2.58l-16.51,12.6c-.66.5-1.58.5-2.24,0-.66-.51-.9-1.39-.58-2.16L199.68,3.21c.28-.69.96-1.14,1.7-1.14h0c.75,0,1.42.45,1.7,1.14l16.91,41.35c.38.94-.07,2.02-1.01,2.4-.23.09-.46.14-.7.14Z"/><path class="cls-1" d="M315.76,23.78c-1.05,0-1.9-.85-1.9-1.9s.85-1.9,1.9-1.9c4.82,0,4.96-4.85,4.96-5.4v-6.25c0-.87-.71-1.59-1.59-1.59s-1.59.71-1.59,1.59v1.07c0,1.05-.85,1.9-1.9,1.9s-1.9-.85-1.9-1.9v-1.07c0-2.97,2.42-5.39,5.39-5.39s5.39,2.42,5.39,5.39v6.25c0,3.18-1.83,9.2-8.76,9.2Z"/><path class="cls-1" d="M53,72.95v2.09c.54-1.53,1.66-2.34,3.18-2.34s2.64.82,3.1,2.3c.65-1.53,1.78-2.3,3.31-2.3,2.11,0,3.31,1.46,3.31,3.98v7.03h-1.5v-6.9c0-1.83-.77-2.82-2.26-2.82-1.63,0-2.64,1.2-2.64,3.18v6.54h-1.48v-6.99c0-1.74-.82-2.73-2.24-2.73-1.63,0-2.69,1.33-2.69,3.44v6.28h-1.48v-10.75h1.4Z"/><path class="cls-1" d="M72.57,80.86c0-1.03.45-1.87,1.31-2.41.77-.45,1.83-.75,3.53-.97l2.39-.28v-.17c0-2.21-.77-3.1-2.6-3.1-1.61,0-2.6.84-2.69,2.37h-1.61c.13-2.21,1.81-3.61,4.28-3.61,2.88,0,4.13,1.33,4.13,4.45v2.79c0,1.68.11,2.88.34,3.76h-1.57c-.11-.58-.17-1.35-.19-2.15-.52,1.51-1.89,2.41-3.74,2.41-2.15,0-3.57-1.25-3.57-3.1ZM79.82,79.01v-.69l-3.05.43c-1.83.26-2.62.88-2.62,2.06s.9,1.89,2.34,1.89c2,0,3.33-1.5,3.33-3.7Z"/><path class="cls-1" d="M88.98,72.95h1.42v2.37c.65-1.74,1.89-2.62,3.68-2.62,2.41,0,3.66,1.48,3.66,4.36v6.64h-1.51v-6.56c0-2.08-.9-3.16-2.6-3.16-1.94,0-3.16,1.55-3.16,4.06v5.65h-1.48v-10.75Z"/><path class="cls-1" d="M105.03,79.76v-6.82h1.48v6.67c0,2.11.99,3.05,2.45,3.05,1.96,0,3.14-1.68,3.14-3.85v-5.87h1.5v10.75h-1.42v-2.21c-.49,1.42-1.85,2.47-3.48,2.47-2.69,0-3.68-1.63-3.68-4.19Z"/><path class="cls-1" d="M126.32,74.19h-2.79v9.5h-1.48v-9.5h-2.02v-1.25h2.02v-1.78c0-1.94,1.14-3.18,3.01-3.18.47,0,.9.04,1.27.15v1.29c-.37-.06-.73-.11-1.08-.11-1.2,0-1.72.64-1.72,2.04v1.59h2.79v1.25Z"/><path class="cls-1" d="M131.63,80.86c0-1.03.45-1.87,1.31-2.41.77-.45,1.83-.75,3.53-.97l2.39-.28v-.17c0-2.21-.77-3.1-2.6-3.1-1.61,0-2.6.84-2.69,2.37h-1.61c.13-2.21,1.81-3.61,4.28-3.61,2.88,0,4.13,1.33,4.13,4.45v2.79c0,1.68.11,2.88.34,3.76h-1.57c-.11-.58-.17-1.35-.19-2.15-.52,1.51-1.89,2.41-3.74,2.41-2.15,0-3.57-1.25-3.57-3.1ZM138.87,79.01v-.69l-3.05.43c-1.83.26-2.62.88-2.62,2.06s.9,1.89,2.34,1.89c2,0,3.33-1.5,3.33-3.7Z"/><path class="cls-1" d="M146.94,78.32c0-3.5,1.87-5.63,4.88-5.63,2.45,0,4.08,1.44,4.34,3.89l-1.53.17c-.22-1.78-1.25-2.75-2.88-2.75-2,0-3.23,1.61-3.23,4.3s1.23,4.34,3.29,4.34c1.61,0,2.62-.97,2.9-2.75l1.44.21c-.39,2.43-1.98,3.85-4.34,3.85-2.99,0-4.88-2.17-4.88-5.63Z"/><path class="cls-1" d="M161.5,72.95h1.98v-2.84l1.5-.64v3.48h2.77v1.25h-2.77v6.45c0,1.27.56,1.83,1.68,1.83.43,0,.73-.04,1.1-.13v1.35c-.45.13-.88.19-1.48.19-2.09,0-2.79-1.27-2.79-3.18v-6.51h-1.98v-1.25Z"/><path class="cls-1" d="M174.15,79.76v-6.82h1.48v6.67c0,2.11.99,3.05,2.45,3.05,1.96,0,3.14-1.68,3.14-3.85v-5.87h1.5v10.75h-1.42v-2.21c-.49,1.42-1.85,2.47-3.48,2.47-2.69,0-3.68-1.63-3.68-4.19Z"/><path class="cls-1" d="M195.41,72.69c.15,0,.26,0,.41.02v1.46h-.17c-1.03,0-1.76.3-2.3.82-.99.99-1.18,2.43-1.18,3.78v4.92h-1.48v-10.75h1.4v2.62c.49-1.66,1.68-2.88,3.33-2.88Z"/><path class="cls-1" d="M210.34,78.71h-7.8c.02,2.43,1.35,3.91,3.44,3.91,1.5,0,2.58-.84,3.03-2.3l1.27.52c-.67,2-2.24,3.12-4.41,3.12-3.05,0-4.84-1.96-4.84-5.57s1.81-5.7,4.77-5.7,4.54,1.72,4.54,4.99v1.03ZM208.81,77.29c0-2.21-1.12-3.4-3.03-3.4s-3.2,1.38-3.25,3.59h6.28v-.19Z"/><path class="cls-1" d="M225.95,78.32c0-3.31,1.87-5.63,4.6-5.63,1.55,0,2.73.71,3.38,2.21v-6.79h1.5v15.59h-1.42v-2.28c-.62,1.59-1.91,2.54-3.63,2.54-2.67,0-4.43-2.28-4.43-5.63ZM233.95,78.56v-.45c0-2.45-1.18-4.08-3.18-4.08s-3.22,1.61-3.22,4.3,1.2,4.3,3.2,4.3,3.2-1.68,3.2-4.06Z"/><path class="cls-1" d="M243.37,68.65h1.7v2.37h-1.7v-2.37ZM243.48,72.95h1.48v10.75h-1.48v-10.75Z"/><path class="cls-1" d="M259.37,73.7c.69.64,1.08,1.55,1.08,2.6,0,2.08-1.48,3.63-3.91,3.63-.79,0-1.48-.17-2.06-.47-.54.21-.92.62-.92,1.18,0,.69.54,1.23,1.83,1.23h2.82c2.32,0,3.5,1.05,3.5,2.92,0,2.02-1.59,3.35-5.18,3.35s-4.82-1.35-4.82-2.99c0-1.03.64-1.91,1.81-2.28-.9-.37-1.29-1.05-1.29-1.85,0-1.01.6-1.72,1.53-2.06-.71-.67-1.12-1.59-1.12-2.67,0-2.09,1.5-3.61,3.91-3.61.82,0,1.53.17,2.11.47.3-1.12,1.14-1.93,2.54-1.93.19,0,.41.02.62.06v1.33c-.19-.04-.41-.09-.69-.09-.86,0-1.46.41-1.74,1.16ZM255.33,83.18c-.3,0-.58-.02-.84-.04-.88.34-1.31,1.03-1.31,1.76,0,1.44,1.4,2,3.5,2,2.67,0,3.5-.84,3.5-2.02,0-1.1-.8-1.7-2.34-1.7h-2.52ZM259.03,76.32c0-1.44-.99-2.47-2.49-2.47s-2.49,1.01-2.49,2.45.99,2.47,2.49,2.47,2.49-1.01,2.49-2.45Z"/><path class="cls-1" d="M268.12,68.65h1.7v2.37h-1.7v-2.37ZM268.23,72.95h1.48v10.75h-1.48v-10.75Z"/><path class="cls-1" d="M276.08,72.95h1.98v-2.84l1.5-.64v3.48h2.77v1.25h-2.77v6.45c0,1.27.56,1.83,1.68,1.83.43,0,.73-.04,1.1-.13v1.35c-.45.13-.88.19-1.48.19-2.09,0-2.79-1.27-2.79-3.18v-6.51h-1.98v-1.25Z"/><path class="cls-1" d="M287.98,80.86c0-1.03.45-1.87,1.31-2.41.77-.45,1.83-.75,3.53-.97l2.39-.28v-.17c0-2.21-.77-3.1-2.6-3.1-1.61,0-2.6.84-2.69,2.37h-1.61c.13-2.21,1.81-3.61,4.28-3.61,2.88,0,4.13,1.33,4.13,4.45v2.79c0,1.68.11,2.88.34,3.76h-1.57c-.11-.58-.17-1.35-.19-2.15-.52,1.51-1.89,2.41-3.74,2.41-2.15,0-3.57-1.25-3.57-3.1ZM295.22,79.01v-.69l-3.05.43c-1.83.26-2.62.88-2.62,2.06s.9,1.89,2.34,1.89c2,0,3.33-1.5,3.33-3.7Z"/><path class="cls-1" d="M305.98,83.7h-1.48v-15.59h1.48v15.59Z"/><path class="cls-1" d="M322.34,78.71h-7.8c.02,2.43,1.35,3.91,3.44,3.91,1.5,0,2.58-.84,3.03-2.3l1.27.52c-.67,2-2.24,3.12-4.41,3.12-3.05,0-4.84-1.96-4.84-5.57s1.81-5.7,4.77-5.7,4.54,1.72,4.54,4.99v1.03ZM320.81,77.29c0-2.21-1.12-3.4-3.03-3.4s-3.2,1.38-3.25,3.59h6.28v-.19Z"/></svg>